<svg width="28" height="30" viewBox="0 0 28 30" fill="none" xmlns="http://www.w3.org/2000/svg">
<g clip-path="url(#clip0_331_192)">
<path d="M18.4573 8.70169L18.264 9.66596C18.1979 9.99549 18.0201 10.3141 17.7135 10.5015L17.7134 10.5016C17.4113 10.6855 17.0466 10.7431 16.6058 10.7431H12.9844C12.542 10.7431 12.177 10.6855 11.8746 10.5016L11.8744 10.5015C11.5674 10.3141 11.3903 9.99538 11.324 9.66606L11.324 9.66597L11.1306 8.7017L10.4381 7.49964C10.438 7.49951 10.4379 7.49938 10.4378 7.49926C10.3497 7.34908 10.2766 7.27315 10.133 7.20663L10.175 7.11589M18.4573 8.70169L6.12208 22.8347C5.61151 23.4091 4.87158 23.4303 4.14958 23.1426L4.14922 23.1425C3.79255 23.0019 3.47013 22.7761 3.22856 22.5328C2.98606 22.2886 2.8361 22.0382 2.80285 21.8497C2.64741 19.9329 3.22214 16.1421 4.20347 12.8828L4.20348 12.8828C4.69463 11.2496 5.28715 9.75147 5.91193 8.68522L5.91197 8.68515C6.22397 8.15171 6.54199 7.73393 6.84097 7.46457L6.84109 7.46445C7.14039 7.1939 7.39637 7.08806 7.60912 7.08806H9.33092C9.73863 7.08806 9.98422 7.13809 10.1332 7.20672L10.175 7.11589M18.4573 8.70169L19.1499 7.49964C19.1499 7.49954 19.15 7.49944 19.15 7.49934C19.2377 7.35 19.3132 7.27377 19.4577 7.20656C19.6048 7.13813 19.8498 7.08806 20.259 7.08806H21.9788C22.1919 7.08806 22.4483 7.19394 22.7479 7.46417L18.4573 8.70169ZM10.175 7.11589C10.0069 7.03842 9.74443 6.98806 9.33092 6.98806H7.60912C7.36217 6.98806 7.08328 7.11073 6.77404 7.39027L10.5243 7.44902C10.4284 7.28568 10.3416 7.19304 10.175 7.11589ZM1.9306 21.9427L1.93118 21.9426C1.75178 19.7973 2.36235 15.9771 3.37121 12.6318L1.9306 21.9427ZM1.9306 21.9427L1.93265 21.9533M1.9306 21.9427L1.93265 21.9533M1.93265 21.9533L1.93349 21.9595L1.93353 21.9598C1.93397 21.9634 1.93476 21.97 1.93636 21.9778C2.07659 22.8609 2.89638 23.5836 3.82669 23.954L3.8269 23.9541M1.93265 21.9533L3.8269 23.9541M3.8269 23.9541C4.76759 24.3262 5.96826 24.3167 6.771 23.4113L3.8269 23.9541ZM25.7619 23.954L25.7617 23.954C24.8213 24.3265 23.6203 24.3166 22.8169 23.4113L19.3554 19.5142H10.2332L6.77107 23.4113L25.7619 23.954ZM25.7619 23.954C26.6919 23.5837 27.5114 22.8614 27.6521 21.9787M25.7619 23.954L27.6521 21.9787M27.6521 21.9787C27.6549 21.9658 27.6566 21.9528 27.657 21.9396C27.8362 19.7937 27.2251 15.9755 26.2193 12.6318L26.2193 12.6317C25.715 10.9587 25.1109 9.40695 24.4293 8.24545C24.0888 7.66499 23.7296 7.17565 23.3319 6.81834C22.9369 6.4589 22.4802 6.21567 21.9788 6.21567H20.259C19.7814 6.21567 19.4073 6.27383 19.0927 6.4181C19.0927 6.41811 19.0927 6.41812 19.0926 6.41813L19.1343 6.50903C18.8386 6.64364 18.6269 6.8654 18.4836 7.11428M27.6521 21.9787L18.397 7.06422L18.397 7.06418L18.4836 7.11428M18.4836 7.11428L18.3969 7.06437L17.8174 8.06531M18.4836 7.11428L17.8751 8.16531M17.8751 8.16531V8.06531H17.8174M17.8751 8.16531L17.7885 8.11521L17.8174 8.06531M17.8751 8.16531L17.8174 8.06531M17.8174 8.06531H11.7712L11.193 7.06446C11.193 7.06444 11.193 7.06443 11.193 7.06441C11.0414 6.80068 10.8149 6.56311 10.4972 6.4181C10.1831 6.27381 9.809 6.21567 9.33092 6.21567H7.60912C7.11018 6.21567 6.65347 6.45904 6.25611 6.81826C5.85903 7.17556 5.49982 7.66493 5.16117 8.2456C4.47956 9.40707 3.87486 10.9591 3.37122 12.6317L17.8174 8.06531ZM12.3443 9.76927C12.1168 9.57014 12.0535 9.30678 12.0448 8.93576H17.5338C17.5159 9.08493 17.4892 9.23253 17.4491 9.36718C17.3991 9.53544 17.33 9.6768 17.2371 9.77625L17.2368 9.77657C17.2164 9.79866 17.1623 9.82683 17.0471 9.84663C16.9369 9.86557 16.7897 9.87395 16.6058 9.87395H12.9847C12.8017 9.87395 12.6566 9.86357 12.5472 9.84365C12.4347 9.82318 12.3733 9.79488 12.3446 9.76954L12.3443 9.76927ZM9.71223 18.79L6.12213 22.8346L9.90096 18.7733C9.85745 18.7925 9.81859 18.8208 9.78704 18.8564L9.71225 18.79L9.71223 18.79ZM19.5512 18.6454H10.0398L19.6898 18.7736C19.6463 18.7544 19.5992 18.7448 19.5517 18.7454V18.6454H19.5512Z" fill="white" stroke="white" stroke-width="0.2"/>
<mask id="path-2-outside-1_331_192" maskUnits="userSpaceOnUse" x="4.65515" y="9.71387" width="20" height="8" fill="black">
<rect fill="white" x="4.65515" y="9.71387" width="20" height="8"/>
<path d="M8.71657 11.5222C9.02937 11.5222 9.26953 11.763 9.26953 12.0758V13.0258C9.26949 13.0699 9.27817 13.1137 9.29508 13.1545C9.312 13.1954 9.3368 13.2325 9.36808 13.2637C9.39936 13.2949 9.4365 13.3196 9.47736 13.3365C9.51823 13.3533 9.56201 13.3619 9.60621 13.3618H10.5556C10.8684 13.3618 11.1072 13.6019 11.1072 13.9147C11.1072 14.2259 10.8684 14.4645 10.5556 14.4645H9.60621C9.41963 14.4645 9.26953 14.6159 9.26953 14.8011V15.7528C9.26953 16.0633 9.02937 16.3041 8.71657 16.3041C8.40378 16.3041 8.16362 16.0633 8.16362 15.7528V14.8011C8.16362 14.6159 8.01352 14.4645 7.82694 14.4645H6.87759C6.5648 14.4645 6.32399 14.2259 6.32399 13.9147C6.32399 13.6019 6.5648 13.3618 6.87759 13.3618H7.82694C7.87114 13.3619 7.91492 13.3533 7.95578 13.3365C7.99665 13.3196 8.03378 13.2949 8.06506 13.2637C8.09635 13.2325 8.12115 13.1954 8.13807 13.1545C8.15498 13.1137 8.16366 13.0699 8.16362 13.0258V12.0758C8.16362 11.763 8.40378 11.5222 8.71657 11.5222ZM8.71657 10.8517C8.39231 10.8528 8.08164 10.9821 7.85237 11.2115C7.62311 11.4408 7.49387 11.7515 7.49284 12.0758V12.6891H6.87759C6.20488 12.6891 5.65515 13.2427 5.65515 13.9147C5.656 14.2387 5.78507 14.5491 6.01414 14.7782C6.2432 15.0073 6.55364 15.1363 6.87759 15.1372H7.49284V15.7528C7.49284 16.4235 8.04386 16.9765 8.71657 16.9765C9.38929 16.9765 9.93901 16.4235 9.93901 15.7528V15.1372H10.5556C10.8795 15.1363 11.1899 15.0073 11.419 14.7782C11.6481 14.5491 11.7771 14.2387 11.778 13.9147C11.778 13.2423 11.2283 12.6891 10.5556 12.6891H9.93901V12.0758C9.93833 11.7516 9.80937 11.4409 9.58031 11.2115C9.35126 10.9822 9.04072 10.8528 8.71657 10.8517ZM19.816 11.3846C19.9204 11.3838 20.024 11.4038 20.1207 11.4434C20.2173 11.483 20.3051 11.5414 20.379 11.6152C20.4529 11.689 20.5113 11.7768 20.5509 11.8735C20.5905 11.9701 20.6105 12.0736 20.6098 12.1781C20.6105 12.2826 20.5904 12.3862 20.5508 12.4829C20.5111 12.5796 20.4527 12.6675 20.3789 12.7415C20.3051 12.8154 20.2173 12.874 20.1207 12.9138C20.0241 12.9537 19.9205 12.9739 19.816 12.9735C19.7116 12.9738 19.6081 12.9535 19.5115 12.9137C19.415 12.8738 19.3273 12.8152 19.2535 12.7412C19.1798 12.6673 19.1214 12.5794 19.0818 12.4827C19.0422 12.3861 19.0222 12.2825 19.0229 12.1781C19.0221 12.0737 19.0421 11.9702 19.0817 11.8736C19.1213 11.777 19.1797 11.6893 19.2534 11.6154C19.3272 11.5416 19.415 11.4832 19.5116 11.4436C19.6081 11.4039 19.7116 11.3839 19.816 11.3846ZM19.816 10.7139C19.0109 10.7139 18.3502 11.3727 18.3502 12.1781C18.3502 12.9835 19.0109 13.6423 19.816 13.6423C20.6217 13.6423 21.2825 12.9835 21.2825 12.1781C21.2825 11.3727 20.6217 10.7139 19.816 10.7139ZM19.816 14.8531C19.9206 14.8526 20.0243 14.8729 20.121 14.9129C20.2177 14.9528 20.3055 15.0115 20.3794 15.0856C20.4532 15.1597 20.5116 15.2477 20.5511 15.3446C20.5907 15.4414 20.6106 15.5452 20.6098 15.6498C20.6105 15.7542 20.5904 15.8577 20.5507 15.9544C20.5111 16.051 20.4527 16.1387 20.3788 16.2126C20.305 16.2864 20.2172 16.3449 20.1206 16.3845C20.024 16.4242 19.9204 16.4442 19.816 16.4435C19.7116 16.4442 19.6081 16.4241 19.5116 16.3844C19.415 16.3448 19.3273 16.2863 19.2535 16.2125C19.1797 16.1386 19.1214 16.0508 19.0818 15.9543C19.0422 15.8577 19.0222 15.7542 19.0229 15.6498C19.022 15.5452 19.0419 15.4415 19.0814 15.3447C19.1209 15.2478 19.1792 15.1598 19.253 15.0857C19.3268 15.0116 19.4145 14.9529 19.5112 14.913C19.6078 14.873 19.7114 14.8527 19.816 14.8531ZM19.816 14.184C19.0109 14.184 18.3502 14.8444 18.3502 15.6498C18.3502 16.4552 19.0109 17.1146 19.816 17.1146C20.6217 17.1146 21.2825 16.4552 21.2825 15.6498C21.2825 14.8444 20.6217 14.184 19.816 14.184ZM22.7212 13.1177C22.8259 13.1173 22.9297 13.1376 23.0266 13.1775C23.1234 13.2174 23.2114 13.2761 23.2853 13.3502C23.3593 13.4243 23.4179 13.5124 23.4577 13.6093C23.4974 13.7062 23.5175 13.81 23.5169 13.9147C23.5173 14.0192 23.497 14.1228 23.4572 14.2194C23.4173 14.316 23.3587 14.4038 23.2847 14.4775C23.2107 14.5513 23.1228 14.6097 23.026 14.6493C22.9293 14.6889 22.8257 14.7089 22.7212 14.7082C22.6168 14.709 22.5133 14.689 22.4167 14.6494C22.3201 14.6097 22.2323 14.5513 22.1585 14.4775C22.0847 14.4037 22.0264 14.3159 21.9868 14.2193C21.9472 14.1227 21.9273 14.0191 21.9281 13.9147C21.927 13.8101 21.9468 13.7063 21.9862 13.6094C22.0256 13.5125 22.0839 13.4243 22.1578 13.3502C22.2316 13.276 22.3194 13.2172 22.4161 13.1773C22.5129 13.1374 22.6166 13.1172 22.7212 13.1177ZM22.7212 12.4489C21.9161 12.4489 21.2554 13.1097 21.2554 13.9151C21.2554 14.7204 21.9161 15.3793 22.7212 15.3793C23.5269 15.3793 24.1857 14.7204 24.1857 13.9151C24.1857 13.1097 23.5269 12.4489 22.7212 12.4489Z"/>
</mask>
<path d="M8.71657 11.5222C9.02937 11.5222 9.26953 11.763 9.26953 12.0758V13.0258C9.26949 13.0699 9.27817 13.1137 9.29508 13.1545C9.312 13.1954 9.3368 13.2325 9.36808 13.2637C9.39936 13.2949 9.4365 13.3196 9.47736 13.3365C9.51823 13.3533 9.56201 13.3619 9.60621 13.3618H10.5556C10.8684 13.3618 11.1072 13.6019 11.1072 13.9147C11.1072 14.2259 10.8684 14.4645 10.5556 14.4645H9.60621C9.41963 14.4645 9.26953 14.6159 9.26953 14.8011V15.7528C9.26953 16.0633 9.02937 16.3041 8.71657 16.3041C8.40378 16.3041 8.16362 16.0633 8.16362 15.7528V14.8011C8.16362 14.6159 8.01352 14.4645 7.82694 14.4645H6.87759C6.5648 14.4645 6.32399 14.2259 6.32399 13.9147C6.32399 13.6019 6.5648 13.3618 6.87759 13.3618H7.82694C7.87114 13.3619 7.91492 13.3533 7.95578 13.3365C7.99665 13.3196 8.03378 13.2949 8.06506 13.2637C8.09635 13.2325 8.12115 13.1954 8.13807 13.1545C8.15498 13.1137 8.16366 13.0699 8.16362 13.0258V12.0758C8.16362 11.763 8.40378 11.5222 8.71657 11.5222ZM8.71657 10.8517C8.39231 10.8528 8.08164 10.9821 7.85237 11.2115C7.62311 11.4408 7.49387 11.7515 7.49284 12.0758V12.6891H6.87759C6.20488 12.6891 5.65515 13.2427 5.65515 13.9147C5.656 14.2387 5.78507 14.5491 6.01414 14.7782C6.2432 15.0073 6.55364 15.1363 6.87759 15.1372H7.49284V15.7528C7.49284 16.4235 8.04386 16.9765 8.71657 16.9765C9.38929 16.9765 9.93901 16.4235 9.93901 15.7528V15.1372H10.5556C10.8795 15.1363 11.1899 15.0073 11.419 14.7782C11.6481 14.5491 11.7771 14.2387 11.778 13.9147C11.778 13.2423 11.2283 12.6891 10.5556 12.6891H9.93901V12.0758C9.93833 11.7516 9.80937 11.4409 9.58031 11.2115C9.35126 10.9822 9.04072 10.8528 8.71657 10.8517ZM19.816 11.3846C19.9204 11.3838 20.024 11.4038 20.1207 11.4434C20.2173 11.483 20.3051 11.5414 20.379 11.6152C20.4529 11.689 20.5113 11.7768 20.5509 11.8735C20.5905 11.9701 20.6105 12.0736 20.6098 12.1781C20.6105 12.2826 20.5904 12.3862 20.5508 12.4829C20.5111 12.5796 20.4527 12.6675 20.3789 12.7415C20.3051 12.8154 20.2173 12.874 20.1207 12.9138C20.0241 12.9537 19.9205 12.9739 19.816 12.9735C19.7116 12.9738 19.6081 12.9535 19.5115 12.9137C19.415 12.8738 19.3273 12.8152 19.2535 12.7412C19.1798 12.6673 19.1214 12.5794 19.0818 12.4827C19.0422 12.3861 19.0222 12.2825 19.0229 12.1781C19.0221 12.0737 19.0421 11.9702 19.0817 11.8736C19.1213 11.777 19.1797 11.6893 19.2534 11.6154C19.3272 11.5416 19.415 11.4832 19.5116 11.4436C19.6081 11.4039 19.7116 11.3839 19.816 11.3846ZM19.816 10.7139C19.0109 10.7139 18.3502 11.3727 18.3502 12.1781C18.3502 12.9835 19.0109 13.6423 19.816 13.6423C20.6217 13.6423 21.2825 12.9835 21.2825 12.1781C21.2825 11.3727 20.6217 10.7139 19.816 10.7139ZM19.816 14.8531C19.9206 14.8526 20.0243 14.8729 20.121 14.9129C20.2177 14.9528 20.3055 15.0115 20.3794 15.0856C20.4532 15.1597 20.5116 15.2477 20.5511 15.3446C20.5907 15.4414 20.6106 15.5452 20.6098 15.6498C20.6105 15.7542 20.5904 15.8577 20.5507 15.9544C20.5111 16.051 20.4527 16.1387 20.3788 16.2126C20.305 16.2864 20.2172 16.3449 20.1206 16.3845C20.024 16.4242 19.9204 16.4442 19.816 16.4435C19.7116 16.4442 19.6081 16.4241 19.5116 16.3844C19.415 16.3448 19.3273 16.2863 19.2535 16.2125C19.1797 16.1386 19.1214 16.0508 19.0818 15.9543C19.0422 15.8577 19.0222 15.7542 19.0229 15.6498C19.022 15.5452 19.0419 15.4415 19.0814 15.3447C19.1209 15.2478 19.1792 15.1598 19.253 15.0857C19.3268 15.0116 19.4145 14.9529 19.5112 14.913C19.6078 14.873 19.7114 14.8527 19.816 14.8531ZM19.816 14.184C19.0109 14.184 18.3502 14.8444 18.3502 15.6498C18.3502 16.4552 19.0109 17.1146 19.816 17.1146C20.6217 17.1146 21.2825 16.4552 21.2825 15.6498C21.2825 14.8444 20.6217 14.184 19.816 14.184ZM22.7212 13.1177C22.8259 13.1173 22.9297 13.1376 23.0266 13.1775C23.1234 13.2174 23.2114 13.2761 23.2853 13.3502C23.3593 13.4243 23.4179 13.5124 23.4577 13.6093C23.4974 13.7062 23.5175 13.81 23.5169 13.9147C23.5173 14.0192 23.497 14.1228 23.4572 14.2194C23.4173 14.316 23.3587 14.4038 23.2847 14.4775C23.2107 14.5513 23.1228 14.6097 23.026 14.6493C22.9293 14.6889 22.8257 14.7089 22.7212 14.7082C22.6168 14.709 22.5133 14.689 22.4167 14.6494C22.3201 14.6097 22.2323 14.5513 22.1585 14.4775C22.0847 14.4037 22.0264 14.3159 21.9868 14.2193C21.9472 14.1227 21.9273 14.0191 21.9281 13.9147C21.927 13.8101 21.9468 13.7063 21.9862 13.6094C22.0256 13.5125 22.0839 13.4243 22.1578 13.3502C22.2316 13.276 22.3194 13.2172 22.4161 13.1773C22.5129 13.1374 22.6166 13.1172 22.7212 13.1177ZM22.7212 12.4489C21.9161 12.4489 21.2554 13.1097 21.2554 13.9151C21.2554 14.7204 21.9161 15.3793 22.7212 15.3793C23.5269 15.3793 24.1857 14.7204 24.1857 13.9151C24.1857 13.1097 23.5269 12.4489 22.7212 12.4489Z" fill="white"/>
<path d="M8.71657 11.5222C9.02937 11.5222 9.26953 11.763 9.26953 12.0758V13.0258C9.26949 13.0699 9.27817 13.1137 9.29508 13.1545C9.312 13.1954 9.3368 13.2325 9.36808 13.2637C9.39936 13.2949 9.4365 13.3196 9.47736 13.3365C9.51823 13.3533 9.56201 13.3619 9.60621 13.3618H10.5556C10.8684 13.3618 11.1072 13.6019 11.1072 13.9147C11.1072 14.2259 10.8684 14.4645 10.5556 14.4645H9.60621C9.41963 14.4645 9.26953 14.6159 9.26953 14.8011V15.7528C9.26953 16.0633 9.02937 16.3041 8.71657 16.3041C8.40378 16.3041 8.16362 16.0633 8.16362 15.7528V14.8011C8.16362 14.6159 8.01352 14.4645 7.82694 14.4645H6.87759C6.5648 14.4645 6.32399 14.2259 6.32399 13.9147C6.32399 13.6019 6.5648 13.3618 6.87759 13.3618H7.82694C7.87114 13.3619 7.91492 13.3533 7.95578 13.3365C7.99665 13.3196 8.03378 13.2949 8.06506 13.2637C8.09635 13.2325 8.12115 13.1954 8.13807 13.1545C8.15498 13.1137 8.16366 13.0699 8.16362 13.0258V12.0758C8.16362 11.763 8.40378 11.5222 8.71657 11.5222ZM8.71657 10.8517C8.39231 10.8528 8.08164 10.9821 7.85237 11.2115C7.62311 11.4408 7.49387 11.7515 7.49284 12.0758V12.6891H6.87759C6.20488 12.6891 5.65515 13.2427 5.65515 13.9147C5.656 14.2387 5.78507 14.5491 6.01414 14.7782C6.2432 15.0073 6.55364 15.1363 6.87759 15.1372H7.49284V15.7528C7.49284 16.4235 8.04386 16.9765 8.71657 16.9765C9.38929 16.9765 9.93901 16.4235 9.93901 15.7528V15.1372H10.5556C10.8795 15.1363 11.1899 15.0073 11.419 14.7782C11.6481 14.5491 11.7771 14.2387 11.778 13.9147C11.778 13.2423 11.2283 12.6891 10.5556 12.6891H9.93901V12.0758C9.93833 11.7516 9.80937 11.4409 9.58031 11.2115C9.35126 10.9822 9.04072 10.8528 8.71657 10.8517ZM19.816 11.3846C19.9204 11.3838 20.024 11.4038 20.1207 11.4434C20.2173 11.483 20.3051 11.5414 20.379 11.6152C20.4529 11.689 20.5113 11.7768 20.5509 11.8735C20.5905 11.9701 20.6105 12.0736 20.6098 12.1781C20.6105 12.2826 20.5904 12.3862 20.5508 12.4829C20.5111 12.5796 20.4527 12.6675 20.3789 12.7415C20.3051 12.8154 20.2173 12.874 20.1207 12.9138C20.0241 12.9537 19.9205 12.9739 19.816 12.9735C19.7116 12.9738 19.6081 12.9535 19.5115 12.9137C19.415 12.8738 19.3273 12.8152 19.2535 12.7412C19.1798 12.6673 19.1214 12.5794 19.0818 12.4827C19.0422 12.3861 19.0222 12.2825 19.0229 12.1781C19.0221 12.0737 19.0421 11.9702 19.0817 11.8736C19.1213 11.777 19.1797 11.6893 19.2534 11.6154C19.3272 11.5416 19.415 11.4832 19.5116 11.4436C19.6081 11.4039 19.7116 11.3839 19.816 11.3846ZM19.816 10.7139C19.0109 10.7139 18.3502 11.3727 18.3502 12.1781C18.3502 12.9835 19.0109 13.6423 19.816 13.6423C20.6217 13.6423 21.2825 12.9835 21.2825 12.1781C21.2825 11.3727 20.6217 10.7139 19.816 10.7139ZM19.816 14.8531C19.9206 14.8526 20.0243 14.8729 20.121 14.9129C20.2177 14.9528 20.3055 15.0115 20.3794 15.0856C20.4532 15.1597 20.5116 15.2477 20.5511 15.3446C20.5907 15.4414 20.6106 15.5452 20.6098 15.6498C20.6105 15.7542 20.5904 15.8577 20.5507 15.9544C20.5111 16.051 20.4527 16.1387 20.3788 16.2126C20.305 16.2864 20.2172 16.3449 20.1206 16.3845C20.024 16.4242 19.9204 16.4442 19.816 16.4435C19.7116 16.4442 19.6081 16.4241 19.5116 16.3844C19.415 16.3448 19.3273 16.2863 19.2535 16.2125C19.1797 16.1386 19.1214 16.0508 19.0818 15.9543C19.0422 15.8577 19.0222 15.7542 19.0229 15.6498C19.022 15.5452 19.0419 15.4415 19.0814 15.3447C19.1209 15.2478 19.1792 15.1598 19.253 15.0857C19.3268 15.0116 19.4145 14.9529 19.5112 14.913C19.6078 14.873 19.7114 14.8527 19.816 14.8531ZM19.816 14.184C19.0109 14.184 18.3502 14.8444 18.3502 15.6498C18.3502 16.4552 19.0109 17.1146 19.816 17.1146C20.6217 17.1146 21.2825 16.4552 21.2825 15.6498C21.2825 14.8444 20.6217 14.184 19.816 14.184ZM22.7212 13.1177C22.8259 13.1173 22.9297 13.1376 23.0266 13.1775C23.1234 13.2174 23.2114 13.2761 23.2853 13.3502C23.3593 13.4243 23.4179 13.5124 23.4577 13.6093C23.4974 13.7062 23.5175 13.81 23.5169 13.9147C23.5173 14.0192 23.497 14.1228 23.4572 14.2194C23.4173 14.316 23.3587 14.4038 23.2847 14.4775C23.2107 14.5513 23.1228 14.6097 23.026 14.6493C22.9293 14.6889 22.8257 14.7089 22.7212 14.7082C22.6168 14.709 22.5133 14.689 22.4167 14.6494C22.3201 14.6097 22.2323 14.5513 22.1585 14.4775C22.0847 14.4037 22.0264 14.3159 21.9868 14.2193C21.9472 14.1227 21.9273 14.0191 21.9281 13.9147C21.927 13.8101 21.9468 13.7063 21.9862 13.6094C22.0256 13.5125 22.0839 13.4243 22.1578 13.3502C22.2316 13.276 22.3194 13.2172 22.4161 13.1773C22.5129 13.1374 22.6166 13.1172 22.7212 13.1177ZM22.7212 12.4489C21.9161 12.4489 21.2554 13.1097 21.2554 13.9151C21.2554 14.7204 21.9161 15.3793 22.7212 15.3793C23.5269 15.3793 24.1857 14.7204 24.1857 13.9151C24.1857 13.1097 23.5269 12.4489 22.7212 12.4489Z" stroke="white" stroke-width="0.4" mask="url(#path-2-outside-1_331_192)"/>
</g>
<defs>
<clipPath id="clip0_331_192">
<rect width="28" height="30" fill="white"/>
</clipPath>
</defs>
</svg>
